<svg xmlns="http://www.w3.org/2000/svg" viewBox="0 0 48 48" shape-rendering="crispEdges"><path fill="#fae09c" d="M12 2h1v1h-1zM24 2h1v1h-1zM36 2h1v1h-1zM11 3h3v1h-3zM19 3h1v1h-1zM23 3h3v1h-3zM32 3h1v1h-1zM35 3h3v1h-3zM12 4h1v1h-1zM19 4h1v1h-1zM24 4h1v1h-1zM32 4h1v1h-1zM36 4h1v1h-1zM18 5h3v1h-3zM31 5h3v1h-3zM18 6h3v1h-3zM31 6h3v1h-3zM18 7h4v1h-4zM31 7h3v1h-3zM18 8h4v1h-4zM31 8h3v1h-3zM17 9h5v1h-5zM30 9h5v1h-5zM17 10h6v1h-6zM30 10h5v1h-5zM17 11h6v1h-6zM30 11h5v1h-5zM16 12h8v1h-8zM29 12h6v1h-6zM16 13h8v1h-8zM29 13h7v1h-7zM35 14h1v1h-1zM20 39h1v1h-1zM28 39h1v1h-1zM20 40h1v1h-1zM28 40h1v1h-1z"/><path fill="#2d3041" d="M14 11h3v1h-3zM23 11h7v1h-7zM14 12h1v1h-1zM14 13h1v1h-1zM14 14h1v1h-1zM34 14h1v1h-1zM14 15h1v1h-1zM34 15h1v1h-1zM14 16h1v1h-1zM34 16h1v1h-1zM14 17h1v1h-1zM34 17h1v1h-1zM14 18h1v1h-1zM21 18h2v1h-2zM29 18h2v1h-2zM34 18h1v1h-1zM14 19h1v1h-1zM20 19h3v1h-3zM28 19h3v1h-3zM34 19h1v1h-1zM14 20h1v1h-1zM20 20h3v1h-3zM28 20h3v1h-3zM34 20h1v1h-1zM14 21h1v1h-1zM20 21h3v1h-3zM28 21h3v1h-3zM34 21h1v1h-1zM14 22h1v1h-1zM34 22h1v1h-1zM14 23h1v1h-1zM34 23h1v1h-1zM14 24h1v1h-1zM24 24h3v1h-3zM34 24h1v1h-1zM14 25h1v1h-1zM34 25h1v1h-1zM14 26h21v1h-21zM15 27h1v1h-1zM32 27h1v1h-1zM15 28h1v1h-1zM32 28h1v1h-1zM15 29h1v1h-1zM32 29h1v1h-1zM15 30h1v1h-1zM32 30h1v1h-1zM15 31h1v1h-1zM32 31h1v1h-1zM15 32h1v1h-1zM32 32h1v1h-1zM15 33h1v1h-1zM32 33h1v1h-1zM15 34h6v1h-6zM27 34h3v1h-3zM15 35h15v1h-15z"/><path fill="#dc7959" d="M15 12h1v1h-1zM24 12h5v1h-5zM24 13h5v1h-5zM15 14h15v1h-15zM31 14h2v1h-2zM15 15h19v1h-19zM15 16h14v1h-14zM30 16h2v1h-2zM33 16h1v1h-1zM15 17h19v1h-19zM15 18h5v1h-5zM23 18h5v1h-5zM31 18h3v1h-3zM15 19h1v1h-1zM17 19h3v1h-3zM23 19h5v1h-5zM31 19h3v1h-3zM15 20h3v1h-3zM19 20h1v1h-1zM23 20h4v1h-4zM31 20h3v1h-3zM15 21h5v1h-5zM23 21h5v1h-5zM31 21h1v1h-1zM33 21h1v1h-1zM15 22h19v1h-19zM15 23h1v1h-1zM17 23h17v1h-17zM15 24h9v1h-9zM27 24h1v1h-1zM29 24h5v1h-5zM15 25h18v1h-18zM17 27h12v1h-12zM30 27h2v1h-2zM16 28h5v1h-5zM27 28h5v1h-5zM16 29h5v1h-5zM28 29h4v1h-4zM16 30h1v1h-1zM18 30h1v1h-1zM20 30h1v1h-1zM27 30h5v1h-5zM16 31h5v1h-5zM28 31h4v1h-4zM41 31h1v1h-1zM16 32h5v1h-5zM28 32h4v1h-4zM41 32h3v1h-3zM16 33h5v1h-5zM27 33h5v1h-5zM40 33h4v1h-4zM30 34h5v1h-5zM40 34h3v1h-3zM30 35h13v1h-13zM33 36h9v1h-9zM33 37h9v1h-9zM35 38h6v1h-6zM40 39h1v1h-1z"/><path fill="#af4c2c" d="M15 13h1v1h-1zM30 14h1v1h-1zM33 14h1v1h-1zM43 15h1v1h-1zM4 16h1v1h-1zM12 16h1v1h-1zM29 16h1v1h-1zM32 16h1v1h-1zM35 16h1v1h-1zM42 16h2v1h-2zM4 17h2v1h-2zM12 17h2v1h-2zM35 17h1v1h-1zM41 17h2v1h-2zM5 18h2v1h-2zM11 18h3v1h-3zM35 18h1v1h-1zM40 18h3v1h-3zM5 19h3v1h-3zM11 19h3v1h-3zM35 19h1v1h-1zM39 19h4v1h-4zM6 20h3v1h-3zM11 20h3v1h-3zM18 20h1v1h-1zM35 20h2v1h-2zM38 20h4v1h-4zM6 21h8v1h-8zM35 21h7v1h-7zM7 22h7v1h-7zM35 22h6v1h-6zM7 23h7v1h-7zM16 23h1v1h-1zM35 23h6v1h-6zM7 24h7v1h-7zM28 24h1v1h-1zM35 24h6v1h-6zM8 25h6v1h-6zM33 25h1v1h-1zM35 25h5v1h-5zM8 26h6v1h-6zM35 26h5v1h-5zM9 27h5v1h-5zM29 27h1v1h-1zM33 27h7v1h-7zM9 28h1v1h-1zM35 28h4v1h-4zM38 29h1v1h-1zM17 30h1v1h-1zM27 31h1v1h-1zM17 36h5v1h-5zM28 36h5v1h-5zM17 37h5v1h-5zM28 37h5v1h-5zM17 38h5v1h-5zM28 38h5v1h-5z"/><path fill="#fffffa" d="M20 18h1v1h-1zM28 18h1v1h-1z"/><path fill="#ffab8b" d="M16 19h1v1h-1zM27 20h1v1h-1zM32 21h1v1h-1zM16 27h1v1h-1zM21 28h6v1h-6zM21 29h7v1h-7zM19 30h1v1h-1zM21 30h6v1h-6zM21 31h6v1h-6zM21 32h7v1h-7zM21 33h6v1h-6zM21 34h6v1h-6z"/></svg>