<svg xmlns="http://www.w3.org/2000/svg" viewBox="0 0 48 48" shape-rendering="crispEdges"><path fill="#fae09c" d="M12 2h1v1h-1zM24 2h1v1h-1zM36 2h1v1h-1zM11 3h3v1h-3zM23 3h3v1h-3zM35 3h3v1h-3zM12 4h1v1h-1zM24 4h1v1h-1zM36 4h1v1h-1zM13 10h23v1h-23zM13 11h23v1h-23zM13 12h23v1h-23zM36 26h3v1h-3zM36 27h3v1h-3zM8 28h3v1h-3zM22 28h5v1h-5zM8 29h3v1h-3zM22 29h5v1h-5zM20 39h1v1h-1zM28 39h1v1h-1zM20 40h1v1h-1zM28 40h1v1h-1z"/><path fill="#cd9975" d="M19 5h13v1h-13zM19 6h13v1h-13zM19 7h13v1h-13zM21 8h7v1h-7zM19 9h11v1h-11zM15 13h19v1h-19zM14 14h21v1h-21zM14 15h3v1h-3zM18 15h5v1h-5zM24 15h11v1h-11zM13 16h7v1h-7zM21 16h14v1h-14zM13 17h6v1h-6zM22 17h5v1h-5zM30 17h6v1h-6zM13 18h6v1h-6zM22 18h5v1h-5zM30 18h6v1h-6zM13 19h6v1h-6zM22 19h2v1h-2zM25 19h2v1h-2zM30 19h6v1h-6zM13 20h6v1h-6zM22 20h5v1h-5zM30 20h6v1h-6zM13 21h8v1h-8zM22 21h10v1h-10zM33 21h3v1h-3zM13 22h23v1h-23zM14 23h4v1h-4zM19 23h1v1h-1zM21 23h1v1h-1zM24 23h11v1h-11zM14 24h9v1h-9zM26 24h9v1h-9zM15 25h11v1h-11zM28 25h6v1h-6zM16 26h6v1h-6zM23 26h10v1h-10zM16 27h17v1h-17zM18 28h4v1h-4zM27 28h3v1h-3zM19 29h3v1h-3zM28 29h2v1h-2zM21 30h7v1h-7zM17 31h4v1h-4zM16 32h12v1h-12zM15 33h13v1h-13zM18 34h5v1h-5zM24 34h5v1h-5zM19 35h9v1h-9zM21 36h9v1h-9zM23 37h7v1h-7zM25 38h6v1h-6zM29 39h2v1h-2zM31 40h1v1h-1z"/><path fill="#2d3041" d="M19 8h2v1h-2zM28 8h2v1h-2zM17 9h2v1h-2zM30 9h2v1h-2zM14 13h1v1h-1zM34 13h1v1h-1zM13 14h1v1h-1zM35 14h1v1h-1zM13 15h1v1h-1zM35 15h1v1h-1zM12 16h1v1h-1zM36 16h1v1h-1zM12 17h1v1h-1zM20 17h2v1h-2zM28 17h2v1h-2zM36 17h1v1h-1zM12 18h1v1h-1zM19 18h3v1h-3zM27 18h3v1h-3zM36 18h1v1h-1zM12 19h1v1h-1zM19 19h3v1h-3zM27 19h3v1h-3zM36 19h1v1h-1zM12 20h1v1h-1zM19 20h3v1h-3zM27 20h3v1h-3zM36 20h1v1h-1zM12 21h1v1h-1zM36 21h1v1h-1zM12 22h1v1h-1zM36 22h1v1h-1zM13 23h1v1h-1zM35 23h1v1h-1zM13 24h1v1h-1zM23 24h3v1h-3zM35 24h1v1h-1zM14 25h1v1h-1zM34 25h1v1h-1zM14 26h2v1h-2zM33 26h2v1h-2zM15 27h1v1h-1zM33 27h1v1h-1zM16 28h2v1h-2zM31 28h2v1h-2zM16 29h3v1h-3zM30 29h2v1h-2zM15 30h3v1h-3zM19 30h2v1h-2zM28 30h2v1h-2zM14 31h3v1h-3zM21 31h7v1h-7zM13 32h3v1h-3zM12 33h3v1h-3zM14 34h3v1h-3zM15 35h4v1h-4zM17 36h4v1h-4zM18 37h5v1h-5zM30 37h1v1h-1zM20 38h5v1h-5zM31 38h2v1h-2zM21 39h7v1h-7zM31 39h4v1h-4zM23 40h5v1h-5zM29 40h2v1h-2zM32 40h2v1h-2zM27 41h6v1h-6zM31 42h1v1h-1z"/><path fill="#a06c48" d="M17 15h1v1h-1zM23 15h1v1h-1zM20 16h1v1h-1zM24 19h1v1h-1zM21 21h1v1h-1zM20 23h1v1h-1zM23 23h1v1h-1zM26 25h1v1h-1zM22 26h1v1h-1zM30 28h1v1h-1zM18 30h1v1h-1zM17 34h1v1h-1zM23 34h1v1h-1z"/><path fill="#ffcba7" d="M35 16h1v1h-1zM32 21h1v1h-1zM18 23h1v1h-1zM22 23h1v1h-1zM27 25h1v1h-1zM27 29h1v1h-1zM28 35h1v1h-1z"/><path fill="#fffffa" d="M19 17h1v1h-1zM27 17h1v1h-1z"/></svg>