<svg xmlns="http://www.w3.org/2000/svg" viewBox="0 0 512 512">
<defs>
  <linearGradient id="g" x1="0" y1="0" x2="1" y2="1"><stop stop-color="#eeff72"/><stop offset=".48" stop-color="#d9ff4f"/><stop offset="1" stop-color="#a7e92c"/></linearGradient>
  <radialGradient id="bg" cx=".2" cy=".05" r="1.1"><stop stop-color="#25301f"/><stop offset=".28" stop-color="#151b20"/><stop offset="1" stop-color="#080b0e"/></radialGradient>
  <filter id="glow"><feGaussianBlur stdDeviation="9" result="b"/><feMerge><feMergeNode in="b"/><feMergeNode in="SourceGraphic"/></feMerge></filter>
</defs>
<rect x="18" y="18" width="476" height="476" rx="105" fill="url(#bg)" stroke="#27302d" stroke-width="4"/>
<path d="M158 126h139c82 0 128 35 128 93 0 39-23 66-62 78 48 11 76 43 76 88 0 67-52 101-142 101H158V126zm76 64v79h58c39 0 58-13 58-40 0-26-19-39-58-39h-58zm0 139v93h69c42 0 62-15 62-46 0-31-20-47-62-47h-69z" fill="url(#g)" filter="url(#glow)"/>
<path d="M158 126h76v296h-76z" fill="url(#g)"/>
</svg>